<svg width="318" height="71" viewBox="0 0 318 71" fill="none" xmlns="http://www.w3.org/2000/svg">
<path d="M90.3 18.8V51.2001H86.1V18.8H90.3Z" fill="#AF3D44"/>
<path d="M99.9 51.2001V18.8H104.5L114.9 35.2001C117.3 39 119.2 42.4001 120.7 45.7001H120.8C120.4 41.4001 120.3 37.4001 120.3 32.4001V18.8H124.2V51.2001H120L109.7 34.8C107.4 31.2 105.3 27.5 103.7 24H103.6C103.8 28.1 103.9 32 103.9 37.3V51.1H99.9V51.2001Z" fill="#AF3D44"/>
<path d="M140.1 22.4H130.3V18.8H154.3V22.4H144.4V51.2001H140.2V22.4H140.1Z" fill="#AF3D44"/>
<path d="M176.9 36H164.3V47.7001H178.3V51.2001H160.1V18.8H177.6V22.3H164.3V32.5H176.9V36Z" fill="#AF3D44"/>
<path d="M186.2 19.2C188.3 18.8 191.3 18.5 194.2 18.5C198.7 18.5 201.5 19.3 203.6 21.1C205.2 22.5 206.1 24.7 206.1 27.2C206.1 31.5 203.4 34.3 200 35.5V35.6C202.5 36.5 204 38.8 204.8 42.1C205.9 46.6 206.6 49.7 207.3 51H203C202.5 50.1 201.8 47.3 200.8 43.3C199.8 38.8 198.1 37.2 194.3 37H190.4V51H186.2V19.2ZM190.4 34H194.7C199.2 34 202 31.6 202 27.9C202 23.7 199 21.9 194.6 21.9C192.6 21.9 191.1 22.1 190.5 22.3V34H190.4Z" fill="#AF3D44"/>
<path d="M214.4 51.2001V18.8H219L229.4 35.2001C231.8 39 233.7 42.4001 235.2 45.7001H235.3C234.9 41.4001 234.8 37.4001 234.8 32.4001V18.8H238.7V51.2001H234.5L224.2 34.8C221.9 31.2 219.8 27.5 218.2 24H218.1C218.3 28.1 218.4 32 218.4 37.3V51.1H214.4V51.2001Z" fill="#AF3D44"/>
<path d="M252.6 18.8V51.2001H248.4V18.8H252.6Z" fill="#AF3D44"/>
<path d="M261.7 46.1C263.6 47.3 266.3 48.2001 269.2 48.2001C273.5 48.2001 276 45.9001 276 42.7001C276 39.7001 274.3 37.9 269.9 36.3C264.6 34.4 261.4 31.7001 261.4 27.1C261.4 22.1 265.6 18.3 271.9 18.3C275.2 18.3 277.6 19.1 279.1 19.9L277.9 23.3C276.8 22.7 274.7 21.8 271.8 21.8C267.4 21.8 265.7 24.4001 265.7 26.6C265.7 29.6 267.7 31.1 272.1 32.8C277.6 34.9 280.4 37.6 280.4 42.3C280.4 47.3 276.7 51.6 269.1 51.6C266 51.6 262.6 50.7001 260.8 49.5L261.7 46.1Z" fill="#AF3D44"/>
<path d="M293.6 41L290.2 51.2001H285.9L296.9 18.8H301.9L312.9 51.2001H308.4L305 41H293.6ZM304.2 37.7001L301 28.4C300.3 26.3 299.8 24.4 299.3 22.5H299.2C298.7 24.4 298.2 26.4 297.6 28.4L294.4 37.8H304.2V37.7001Z" fill="#AF3D44"/>
<path d="M34 64C50.0163 64 63 51.0163 63 35C63 18.9837 50.0163 6 34 6C17.9837 6 5 18.9837 5 35C5 51.0163 17.9837 64 34 64Z" fill="#AF3D44"/>
<path d="M45 36.2998C44.9 36.2998 44.8 36.2998 44.7 36.2998C43.4 36.7998 42 36.7998 40.7 36.2998C40.6 36.2998 40.5 36.2998 40.4 36.2998C37.3 37.0998 35 39.3998 34 42.2998C33 39.3998 30.7 37.0998 27.6 36.2998C27.5 36.2998 27.4 36.2998 27.3 36.2998C26 36.7998 24.6 36.7998 23.3 36.2998C23.2 36.2998 23.1 36.2998 23 36.2998C19 37.3998 16.1 40.9998 16.1 45.1998V46.7998C16.1 47.4998 16.7 48.1998 17.5 48.1998H33.2C33.5 48.1998 33.8 48.0998 34.1 47.8998C34.3 48.0998 34.6 48.1998 35 48.1998H50.7C51.4 48.1998 52.1 47.5998 52.1 46.7998V45.1998C51.9 40.9998 49.1 37.2998 45 36.2998ZM33.2 47.0998H17.5C17.3 47.0998 17.1 46.8998 17.1 46.6998V45.0998C17.1 41.3998 19.6 38.1998 23.1 37.1998C24.5 37.6998 26.1 37.6998 27.5 37.1998C31 38.1998 33.5 41.3998 33.5 45.0998V46.6998C33.5 46.8998 33.4 47.0998 33.2 47.0998ZM50.9 46.6998C50.9 46.8998 50.7 47.0998 50.5 47.0998H34.9C34.7 47.0998 34.5 46.8998 34.5 46.6998V45.0998C34.5 41.3998 37 38.1998 40.5 37.1998C41.9 37.6998 43.5 37.6998 44.9 37.1998C48.4 38.1998 50.9 41.3998 50.9 45.0998V46.6998Z" fill="white"/>
<path d="M35.8 35.0999C36.2 35.0999 36.8 35.0999 37.4 35.0999C38.3 35.0999 39.3 35.1 40.2 35.2C41 35.6 41.9 35.7999 42.8 35.7999C43.7 35.7999 44.6 35.6 45.4 35.2C46.3 35.1 47.3 35.0999 48.2 35.0999C48.8 35.0999 49.3 35.0999 49.8 35.0999C50 35.0999 50.2 34.9 50.2 34.7C50.8 32.1 50.7 28.4999 48.9 25.9C47.6 24.1 45.6 23 43 22.7C43 22.7 43 22.7 42.9 22.7H42.6C42.6 22.7 42.6 22.7 42.5 22.7C39.8 23 37.8 24.1 36.6 25.9C34.8 28.4999 34.8 32.1 35.3 34.7C35.4 34.9 35.6 35.0999 35.8 35.0999ZM37.4 26.5C38.5 24.9 40.3 24 42.6 23.7H42.8C45.2 24 46.9 24.9 48 26.5C49.9 29.2 49.4 32.8 49.2 34.2C48.9 34.2 48.5 34.2 48.1 34.2C47.7 34.2 47.2 34.2 46.7 34.2C47 33.9 47.3 33.4999 47.6 33.0999C47.7 32.8999 47.7 32.6 47.4 32.4C47.2 32.3 46.9 32.2999 46.7 32.5999C45.9 33.9999 44.3 34.9 42.6 34.9C40.9 34.9 39.4 33.9999 38.5 32.5999C38.4 32.3999 38.1 32.3 37.8 32.4C37.6 32.5 37.5 32.7999 37.6 33.0999C37.8 33.4999 38.1 33.9 38.5 34.2C38 34.2 37.6 34.2 37.1 34.2C36.7 34.2 36.3 34.2 36 34.2C36 32.8 35.5 29.2 37.4 26.5Z" fill="white"/>
<path d="M19.9999 27.0999C19.5999 28.9999 19.5999 30.0999 19.5999 30.1999C19.5999 33.2999 22.0999 35.7999 25.2999 35.7999C28.3999 35.7999 30.8999 33.2999 30.9999 30.1999C31.2999 26.1999 30.7999 24.5999 29.1999 23.7999C28.1999 23.2999 26.8999 23.2999 25.7999 23.2999C25.5999 23.2999 25.3999 23.2999 25.1999 23.2999H24.9999C22.7999 23.1999 20.8999 23.1999 19.5999 21.5999C19.4999 21.3999 19.2999 21.3999 19.0999 21.3999C18.8999 21.4999 18.7999 21.5999 18.7999 21.7999C18.7999 22.1999 18.6999 22.6999 18.6999 23.0999C18.5999 22.9999 18.5999 22.9999 18.4999 22.8999C18.3999 22.6999 18.1999 22.6999 17.9999 22.6999C17.7999 22.6999 17.6999 22.8999 17.5999 23.0999C17.3999 24.5999 18.3999 26.3999 19.9999 27.0999ZM19.0999 24.6999C19.2999 24.7999 19.4999 24.6999 19.5999 24.5999C19.6999 24.4999 19.7999 24.2999 19.6999 24.0999C19.5999 23.7999 19.5999 23.3999 19.5999 22.9999C21.0999 24.1999 22.9999 24.1999 24.8999 24.2999H25.0999C25.2999 24.2999 25.4999 24.2999 25.6999 24.2999C26.7999 24.2999 27.9999 24.2999 28.6999 24.6999C29.7999 25.1999 30.1999 26.1999 29.9999 30.1999C29.9999 32.7999 27.8999 34.8999 25.2999 34.8999C22.6999 34.8999 20.5999 32.7999 20.5999 30.1999C20.5999 30.1999 20.4999 28.9999 20.9999 26.8999C20.9999 26.7999 20.9999 26.5999 20.8999 26.4999C20.7999 26.3999 20.6999 26.2999 20.5999 26.2999C19.6999 26.0999 18.9999 25.2999 18.5999 24.5999C18.8999 24.5999 18.9999 24.6999 19.0999 24.6999Z" fill="white"/>
</svg>
