<svg fill="none" xmlns="http://www.w3.org/2000/svg" viewBox="0 0 100 100">
  <path fill-rule="evenodd" clip-rule="evenodd" d="M87 55.1H44.5a3 3 0 0 0-3 3v21.6H90V58.1a3 3 0 0 0-3-3Zm-36.3 10a1.8 1.8 0 1 1 0-3.4 1.8 1.8 0 0 1 0 3.5Zm7.3 7.5a1.8 1.8 0 1 1 0-3.5 1.8 1.8 0 0 1 0 3.5Zm7.4-7.4a1.8 1.8 0 1 1 0-3.5 1.8 1.8 0 0 1 0 3.5Zm7.4 7.4a1.8 1.8 0 1 1 0-3.5 1.8 1.8 0 0 1 0 3.5Zm7.4-7.4a1.8 1.8 0 1 1 0-3.5 1.8 1.8 0 0 1 0 3.5ZM27.5 45.3H4l2.4-23.5H25l2.4 23.5ZM58.6 11.5c2 0 3.8.8 5.1 2.2l1.6 1.7c.4.4 1 .4 1.4 0l1.6-1.7a7 7 0 0 1 10.2 0c2.8 3 2.8 8 0 11L66 38.3 53.5 24.8c-2.8-3-2.8-8 0-11a7 7 0 0 1 5.1-2.3Z" fill="#B5DCFF"/>
  <path fill-rule="evenodd" clip-rule="evenodd" d="M100 65.2c0-2.4-2-4.3-4.4-4.3h-4.2c-.5 0-1 0-1.4.2v-4.3c0-3-2.4-5.4-5.4-5.4H44c-3 0-5.3 2.4-5.3 5.4V61L37 61H33c-2.4 0-4.3 2-4.3 4.3v22.3h4.8v1.8h-2v3h7.1v-3h-2.1v-1.8h56.2v1.8h-2.1v3h7.2v-3h-2.2v-1.8h4.5V65.2ZM38.6 77.5v7.1h-7.1V65.2c0-.8.6-1.4 1.4-1.4h4.2c.8 0 1.5.6 1.5 1.4v12.3Zm2.9 7V79H87v5.6H41.5ZM87 76.2H41.5V56.8c0-1.4 1-2.5 2.4-2.5h40.7c1.4 0 2.5 1.1 2.5 2.5V76ZM90 79V65.2c0-.8.6-1.4 1.4-1.4h4.2c.8 0 1.5.6 1.5 1.4v19.4H90V79ZM65.7 61.2a1.8 1.8 0 1 1-3.5 0 1.8 1.8 0 0 1 3.5 0Zm7.4 7.4a1.8 1.8 0 1 1-3.5 0 1.8 1.8 0 0 1 3.5 0Zm-14.8 0a1.8 1.8 0 1 1-3.5 0 1.8 1.8 0 0 1 3.5 0ZM51 61.2a1.8 1.8 0 1 1-3.5 0 1.8 1.8 0 0 1 3.5 0Zm29.6 0a1.8 1.8 0 1 1-3.5 0 1.8 1.8 0 0 1 3.5 0ZM26.7 44.4 24 18H2.7L0 44.4h11.9v45.5H6.4v2.9h14v-3h-5.6V44.5h12ZM20 20.9h1.5l2.1 20.6h-3.6V20.9ZM7 41.5H3.2l2.1-20.6H7v20.6Zm1.9 0V20.9h3.6v20.6H8.8Zm5.6-20.6H18v20.6h-3.6V20.9ZM49.9 24.7c-3.9-4-3.9-10.6 0-14.7 3.7-4 10-4 14-.2a9.8 9.8 0 0 1 13.8.2c3.9 4 3.9 10.7 0 14.7l-12.2 13a2.3 2.3 0 0 1-3.4 0L50 24.7Zm25.5-2.2a7 7 0 0 0 0-10 7.3 7.3 0 0 0-10 0l-.7.7c-.5.5-1.4.5-2 0l-.7-.7a7.3 7.3 0 0 0-10 0 7 7 0 0 0 0 10L63.9 34l11.6-11.5Z" fill="#3F27BA"/>
</svg>